<?xml version="1.0" encoding="UTF-8"?>
<svg id="Camada_2" data-name="Camada 2" xmlns="http://www.w3.org/2000/svg" viewBox="0 0 1055.75 283.8">
  <g id="Camada_1-2" data-name="Camada 1">
    <g>
      <g>
        <path d="M70.95,273.97c0,3.73-3.03,6.76-6.77,6.76s-6.77-3.03-6.77-6.76c0-2.66,1.54-4.96,3.77-6.06V73.16H12.83c-1.1,2.24-3.4,3.77-6.06,3.77-3.74,0-6.77-3.03-6.77-6.77s3.03-6.76,6.77-6.76c2.66,0,4.96,1.53,6.06,3.76h54.35v200.75c2.23,1.1,3.77,3.4,3.77,6.06Z"/>
        <path d="M137.88,273.97c0,3.73-3.03,6.76-6.77,6.76s-6.77-3.03-6.77-6.76c0-2.66,1.54-4.96,3.77-6.06V67.16h22.67c3.41-13.96,10.46-26.23,20.88-36.25,1.13-1.11,2.29-2.17,3.5-3.19.61-.51,1.22-1.02,1.83-1.52.13-.12.26-.22.39-.33,1.04-.83,2.11-1.64,3.21-2.42.01,0,.02-.02.03-.02,1.24-.89,2.5-1.76,3.79-2.59.04-.03.09-.05.13-.08.57-.37,1.15-.73,1.73-1.08.63-.39,1.26-.76,1.9-1.13.64-.37,1.28-.73,1.94-1.09,5.56-3.07,11.58-5.63,17.98-7.69H12.83c-1.1,2.24-3.4,3.77-6.06,3.77-3.74,0-6.77-3.03-6.77-6.77S3.03,0,6.77,0c2.66,0,4.96,1.53,6.06,3.76h239.71v.07c.62.01,1.24.04,1.86.07,1.95.08,3.88.21,5.79.4,1.56.14,3.1.32,4.64.52,0,0,0,0,0,0,15.85,2.06,30.51,7.17,43.01,15.08,3.17,2,6.15,4.19,8.98,6.52.15.12.29.25.44.37.92.77,1.84,1.54,2.73,2.35,1.06.96,2.1,1.93,3.11,2.94,1.08,1.05,2.11,2.16,3.12,3.28.13.14.27.28.39.43.11.12.22.24.32.36.33.37.66.75,1,1.15.24.28.47.56.7.84.13.15.26.31.39.48.12.14.23.28.35.42.09.11.17.22.25.33.38.47.74.94,1.1,1.41.44.59.88,1.18,1.32,1.79.63.88,1.24,1.77,1.84,2.67.3.45.59.9.88,1.36.29.46.57.92.85,1.38,2.25,3.7,4.22,7.58,5.87,11.63,0,.03.01.05.03.07h.01c.48.06.94.16,1.38.31.18.05.34.12.51.19h.01c.29.12.56.26.82.42.07.05.14.09.21.13.27.17.53.36.77.58.13.12.27.25.39.37.76.77,1.35,1.74,1.67,2.86.72,2.48-.05,5.04-1.79,6.72-.77.75-1.74,1.33-2.85,1.65-1.36.39-2.75.34-4-.08-.17-.05-.34-.12-.51-.19-.82-.34-1.57-.85-2.2-1.5-.76-.77-1.35-1.74-1.67-2.85-.29-1-.33-2.02-.16-2.98.02-.18.05-.36.11-.53.04-.17.09-.34.15-.51.04-.17.11-.34.19-.51.13-.31.29-.61.46-.9.25-.4.53-.77.86-1.11-.54-1.3-1.12-2.58-1.72-3.85-.09-.18-.17-.36-.26-.54-1.93-3.96-4.17-7.73-6.73-11.29-.81-1.14-1.63-2.23-2.46-3.26-.95-1.17-1.77-2.14-2.57-3.03-15.88-17.88-40.45-28.61-68.05-29.88-.83-.04-1.66-.07-2.49-.09-1.02-.03-2.04-.04-3.06-.04h-.01c-3.73,0-7.4.14-11,.42-19.8,1.54-37.39,7.25-51.23,16.6-.52.35-1.04.71-1.55,1.08-.42.29-.83.58-1.23.89-.55.39-1.08.8-1.61,1.23-.53.41-1.05.83-1.57,1.26-16.49,13.65-25.95,33.12-25.95,56.41,0,2.1.05,4.14.17,6.15h.01c2.03,36.96,23.51,59.12,69.46,71.36,1.57.42,3.17.82,4.8,1.22,4.12,1.04,8.16,2,12.06,2.92,7.74,1.83,15.15,3.58,21.68,5.71.66.21,1.3.43,1.94.65,0,0,0,.01.01,0,4.76,1.66,8.99,3.56,12.47,5.9h.01c.46.31.9.63,1.34.96h0c.65.49,1.27,1,1.86,1.53h.01c.39.35.76.7,1.12,1.08,3.64,3.71,5.73,8.36,5.73,14.4,0,2.52-.32,4.91-.94,7.15-.27,1-.61,1.97-1,2.9-.2.47-.41.93-.63,1.39-.68,1.36-1.48,2.65-2.4,3.87-.31.41-.63.81-.97,1.2-.17.19-.34.38-.51.58-.35.38-.71.75-1.09,1.12-7.14,6.94-19.04,10.87-34.4,10.87-25.73,0-38.16-12.16-43.84-21.18-1.83.05-3.59-.65-4.88-1.92-.13-.12-.25-.25-.37-.38-.59-.66-1.05-1.45-1.34-2.34-.82-2.49-.12-5.11,1.6-6.85.73-.76,1.65-1.35,2.71-1.7,1.09-.36,2.21-.43,3.26-.24.28.05.55.11.82.2,1.04.31,1.99.87,2.77,1.63.13.12.25.25.36.38.59.66,1.05,1.45,1.34,2.34h.01c.4,1.24.43,2.51.15,3.69-.08.34-.18.67-.32.99-.2.49-.46.96-.77,1.4.25.4.53.8.82,1.21.44.62.93,1.26,1.45,1.91,0,.01.01.01.01.01.52.64,1.09,1.29,1.7,1.94,6.14,6.52,16.7,12.91,34.52,12.91,14.06,0,24.58-3.37,30.49-9.42,3.55-3.64,5.44-8.24,5.44-13.66,0-4.34-1.46-7.74-4.29-10.55-6.22-6.19-19.01-9.53-37.26-13.84-3.93-.93-7.98-1.89-12.12-2.94-2.76-.67-5.45-1.37-8.06-2.12-.61-.17-1.23-.34-1.83-.52-.8-.23-1.58-.47-2.36-.71-.74-.22-1.47-.45-2.19-.68-.85-.27-1.69-.55-2.52-.83-1.47-.49-2.9-.99-4.31-1.51-.72-.27-1.44-.54-2.15-.81-29.16-11.16-46.07-27.95-52.52-52.14-.15-.59-.31-1.18-.45-1.78-.15-.59-.29-1.2-.42-1.8-.13-.61-.26-1.22-.38-1.84-.09-.46-.18-.92-.26-1.39-.05-.27-.1-.55-.15-.83-.2-1.17-.37-2.36-.53-3.56-.08-.61-.16-1.22-.22-1.85-.44-3.89-.65-7.95-.65-12.18,0-4.99.39-9.83,1.17-14.49h-15.44v194.75c2.24,1.1,3.77,3.4,3.77,6.06Z"/>
        <path d="M352.45,198.4c0,22.86-9.95,44.04-28.02,59.63-19.52,16.86-46.69,25.77-78.55,25.77-23.08,0-55.8-4.18-80.63-24.09-1.17-.93-2.22-1.81-3.2-2.68-.97-.86-1.96-1.78-3.03-2.82-8.15-7.97-14.43-17.44-18.69-28.21-1.55-.18-2.99-.9-4.07-2.01-.25-.25-.49-.53-.69-.84h0c-.21-.31-.4-.62-.55-.96-.08-.17-.15-.35-.22-.52-.08-.18-.14-.37-.19-.56-.13-.46-.2-.92-.23-1.37-.14-2.01.64-3.96,2.04-5.32.13-.13.27-.25.41-.37.7-.58,1.53-1.03,2.46-1.29,2.48-.7,5.03.08,6.7,1.81.13.13.25.26.36.4.47.56.84,1.21,1.11,1.92.08.18.14.37.19.56.13.46.2.92.23,1.38.12,1.64-.38,3.23-1.33,4.5-.17.23-.36.45-.56.66,3.97,9.9,9.75,18.61,17.24,25.93.99.96,1.9,1.82,2.81,2.61.91.82,1.88,1.63,2.97,2.5,23.47,18.82,54.76,22.77,76.88,22.77,66.03,0,100.57-39.94,100.57-79.4s-19.76-59.58-81.34-76.87c-2.6-.72-5.38-1.43-8.32-2.18-20.34-5.19-45.66-11.65-45.66-32.08,0-16.94,13.82-28.33,34.37-28.33,18.26,0,28.41,7.6,33.91,14.77.22.28.43.57.64.86,2.92-.22,5.77,1.49,6.85,4.38,1.3,3.5-.48,7.4-3.98,8.7-3.5,1.31-7.4-.47-8.7-3.97-.78-2.07-.47-4.29.64-6.02,0-.03-.03-.06-.05-.08-6.18-8.2-16.36-12.64-29.31-12.64-17.23,0-28.37,8.77-28.37,22.33,0,15.77,21.86,21.35,41.14,26.27,2.97.75,5.78,1.47,8.46,2.21,64.09,17.99,85.72,38.85,85.72,82.65Z"/>
      </g>
      <g>
        <path d="M824.15,19.19v98.12c10.09,16.39,15.49,35.75,15.49,56.3s-5.39,39.76-15.49,56.14v38.75h61.14V19.19h-61.14Z"/>
        <path d="M486.56,73.88v1.08h-.01v49.49h-37.5v64.16c0,19.88,7.13,30,25.88,30,4.88,0,8.62-.75,11.62-1.12v51.01c-6.37,2.25-14.25,3.37-26.26,3.37-58.51,0-72-39.75-72-76.88V18.88h60.76v55h37.51Z"/>
        <path d="M833.42,173.61c0,15.54-3.27,30.1-9.26,43.02-15.49,33.39-49.19,55.8-91.79,55.8-25.66,0-48.22-8.25-65.45-22.2-.81-.64-1.61-1.32-2.4-2-.79-.67-1.57-1.37-2.33-2.07-19.36-17.85-30.87-43.49-30.87-72.54,0-4.85-.78-9.55-2.24-13.92-.65-1.9-1.42-3.74-2.32-5.51-6.45-12.66-19.36-21.45-36.31-21.45-24.38,0-40.51,18.76-40.51,40.88s16.13,40.51,40.51,40.51c16.95,0,29.86-8.62,36.31-21.16,3.87,22.22,14.45,42.12,30.76,57.33-17.48,14.49-40.57,23.08-67.07,23.08-59.26,0-102.01-43.51-102.01-99.76s42.75-99.76,102.01-99.76c26.49,0,49.58,8.52,67.06,22.95.81.65,1.6,1.33,2.38,2.03.79.67,1.56,1.38,2.31,2.1,18.26,17.23,29.33,41.46,30.2,69.14-.09,1.17-.14,2.35-.14,3.55s.05,2.38.14,3.55c.3,3.72,1.06,7.31,2.26,10.68.64,1.87,1.43,3.66,2.34,5.37,6.43,12.18,19.04,20.52,35.37,20.52,24.52,0,40.49-18.21,40.49-40.13s-15.97-40.49-40.49-40.49c-16.35,0-28.95,8.51-35.37,20.8-3.86-22.1-14.24-41.96-30.06-57.08,17.23-13.89,39.77-22.05,65.44-22.05,42.59,0,76.3,22.21,91.79,55.63,6,12.93,9.26,27.53,9.26,43.19Z"/>
        <path d="M988.61,150.74c-15-3.01-35.62-3.76-35.62-16.13,0-10.5,11.24-13.88,23.25-13.88,11.26,0,19.5,4.88,21.75,13.88l51.01-12.38c-8.25-32.25-40.51-48.38-73.13-48.38-47.64,0-81.77,22.87-81.77,62.64,0,37.13,19.89,50.25,56.27,58.51,22.5,4.88,42.38,4.12,42.38,17.25,0,9.75-10.12,13.5-22.87,13.5-17.26,0-24.76-7.87-27.01-15.37l-55.12,17.25c7.87,33.38,44.63,45.76,82.88,45.76,55.51,0,85.14-23.63,85.14-63.76,0-34.89-19.13-48.76-67.14-58.88Z"/>
      </g>
    </g>
  </g>
</svg>